<?xml version="1.0" encoding="utf-8"?>
<!-- Generator: Adobe Illustrator 23.0.0, SVG Export Plug-In . SVG Version: 6.00 Build 0)  -->
<svg version="1.1" id="图层_1" xmlns="http://www.w3.org/2000/svg" xmlns:xlink="http://www.w3.org/1999/xlink" x="0px" y="0px"
	 viewBox="0 0 800 600" style="enable-background:new 0 0 800 600;" xml:space="preserve">
<style type="text/css">
	.st0{fill:#39B54A;}
	.st1{fill:#FFFFFF;stroke:#000000;stroke-miterlimit:10;}
	.st2{fill:#8CC63F;}
	.st3{fill:#009245;}
	.st4{fill:none;stroke:#000000;stroke-miterlimit:10;}
	.st5{fill:none;stroke:#000000;stroke-width:2;stroke-miterlimit:10;}
	.st6{fill:url(#SVGID_1_);}
	.st7{fill:url(#SVGID_2_);}
	.st8{fill:#FCEE21;}
	.st9{fill:url(#SVGID_3_);}
	.st10{fill:url(#SVGID_4_);}
	.st11{fill:url(#SVGID_5_);}
	.st12{fill:url(#SVGID_6_);}
	.st13{fill:url(#SVGID_7_);}
</style>
<path class="st0" d="M212.68,495.97c-40.86-39.93-58.31-87.86-58.31-87.86c-8.86-24.34-16.18-44.46-15.18-71.88
	c1.23-33.45,13.32-36.33,18.18-70.6c7.96-56.14-17.29-98.96-8.94-102.84c6.03-2.8,21.99,19.98,23,21.43
	c10.97,15.81,22.76,40.24,29.16,114.94c0.42,4.93,1.21,21.09,2.36,36.33c0.17,2.23,0.91,11.99,1.86,25.36
	c0.15,2.05,0.26,3.71,0.28,3.88c1.75,24.79-1.15,58.45,5.99,85.7c6.18,23.59,19.38,40.45,21.96,39.43
	c5.34-2.11-22.81-85.37-3.38-106.5c3.97-4.31,9.69-8.2,9.69-8.2c5.52-3.75,15.1-10.25,26.83-8.94c4.62,0.51,13.71,2.7,14.16,6.71
	c0.65,5.82-17.96,6.78-25.34,21.61c-3.67,7.38-3.21,15.48-2.98,19.38c0.42,7.22,2.35,11.33,4.47,17.89
	c1.11,3.44,5.84,18.55,6.06,32.36c0.12,7.36,0.34,23.82-10.69,35.63c-2.44,2.62-6.98,7.47-13.81,8.5
	C227.89,509.83,218.81,501.96,212.68,495.97z"/>
<path class="st1" d="M225.46,280.32"/>
<path class="st1" d="M219.87,298.69"/>
<path class="st1" d="M219.87,305.88"/>
<path class="st2" d="M201.02,379.31c2.85-12.76,6.1-27.35,18.27-39.2c16.13-15.69,33.68-12.75,40.73-27.95
	c6.74-14.55-3.16-30.54,1.6-32.75c3.38-1.56,11.81,4.89,15.18,13.58c2.98,7.7,1.51,15.94-13.58,49.52
	c-5.21,11.6-7.82,17.4-10.38,22.36c-24.45,47.31-8.35,124.33-19.17,126.99C223.74,494.31,188.7,434.59,201.02,379.31z"/>
<path class="st1" d="M362.5,149.36"/>
<path class="st1" d="M255.51,236.74"/>
<path class="st3" d="M236.48,261.77c0.77,1.44,7.04,0.35,11.93-2.72c6.27-3.94,9.36-10.56,8.68-11.16
	c-0.43-0.38-1.98,1.92-6.05,3.26c-2.96,0.98-6.77,1.29-6.77,1.29l0,0C244.27,252.44,235.43,259.81,236.48,261.77z"/>
<path class="st3" d="M475.2,148.84c-0.17,0.61,1.91,1.74,3.43,2.32c1.77,0.67,4.54,1.27,4.8,0.65c0.29-0.68-2.42-2.99-5.49-3.36
	C476.92,148.33,475.33,148.35,475.2,148.84z"/>
<path class="st0" d="M268.69,210.12c3.93-0.54,9.06-0.53,13.58,2.2c18.3,11.06,11.23,57.55,18.37,58.91c0.19,0.04,1.64,0.31,2.2-0.4
	c0.88-1.13-1.34-3.68-2.8-7.19c-0.67-1.62-0.99-2.98-1.6-8.99c-1.23-12.01-0.6-12.74-1.6-18.57c-1.01-5.9-2.46-9.9-3.2-11.78
	c-1.71-4.38-3.08-7.76-6.39-10.98c-1.62-1.58-3.61-2.72-7.59-4.99c-2.59-1.48-4.79-2.53-7.19-2.2c-1.39,0.19-2.11,0.74-2.4,1
	C268.9,208.18,268.72,209.66,268.69,210.12z"/>
<path class="st0" d="M290.86,166.18c-2.59-1.34-2.36-8.48,0.09-13.66c1.85-3.92,4.69-6.1,5.83-6.96c4.03-3.03,8.08-3.71,11.66-4.26
	c4.01-0.62,9.9-1.53,16.34,1.16c5.23,2.18,8.29,5.67,11.76,9.64c3.44,3.94,5.41,7.46,6.58,9.6c3.12,5.69,4.53,10.43,5.67,14.33
	c0.78,2.67,2.4,8.72,3.15,16.82c0.19,2.05,0.32,4.24,0.22,15.3c-0.14,14.37-0.39,12.99-0.39,20.39
	c-0.01,14.06,0.89,21.25-1.88,22.25c-0.63,0.23-1.53,0.16-2.04-0.31c-1.68-1.56,2.39-6.09,1.72-12.69
	c-0.23-2.32-0.78-2.18-0.83-4.35c-0.05-2.2,0.48-3.88,0.48-8.05c0,0,0.29-9.29,0.23-17.98c-0.07-8.52-0.1-12.78-0.87-18.12
	c-0.99-6.84-2.57-11.91-3.21-13.87c-1.5-4.58-3.37-10.32-7.68-16.64c-3.64-5.34-7.49-10.97-14.86-13.74
	c-5.39-2.02-10.14-1.54-12.19-1.34c-3.74,0.38-9.31,1.01-13.4,5.47c-2.35,2.58-5.45,7.79-3.81,11.61c0.74,1.72,2.19,2.59,1.82,3.8
	C294.82,165.91,292.32,166.93,290.86,166.18z"/>
<path class="st4" d="M380.79,167.46"/>
<path class="st0" d="M370.85,145.9c-1.53,1.72,1.08,5.32,2.76,11.59c0.58,2.17,0.85,4.7,1.37,9.67c1.6,15.32,1.49,27.81,2.61,37.55
	c0.5,4.36,0.82,6.53,0.98,7.55c0.79,4.83,1.31,5.67,0.84,9.4c-0.15,1.17-0.26,2.04-0.29,2.26c-0.36,2.21-1.98,14.51-2.93,27.05
	c-1.53,20.04,0.76,12.93,0.04,20.05c-0.1,1-0.47,4.37,1.55,6.72c0.76,0.88,2.12,1.93,2.79,1.55c1.04-0.58-0.36-4.05-1.16-9.38
	c-0.41-2.77-0.45-4.98-0.52-9.39c-0.11-6.55,0.7-10.05,1.98-19.71c1.32-9.91,1.98-14.86,1.96-18.65c-0.03-7.39-1.21-7.6-2.64-19.53
	c-1.54-12.8-1.56-24.08-1.56-25.55c0-1.82,0.03-8.88-0.46-18.23c-0.4-7.59-0.92-12.32-3.7-13.47
	C373.31,144.89,371.64,145.01,370.85,145.9z"/>
<path class="st0" d="M538.86,153.34c-0.31,0.58,2.34,1.65,3.68,4.24c1.06,2.05,0.55,3.59-0.42,9.26
	c-1.73,10.15-1.52,13.64-3.09,16.84c-0.42,0.86-0.71,1.79-1.3,3.66c-0.68,2.17-0.77,2.96-0.35,3.4c0.38,0.4,1.14,0.48,1.62,0.19
	c0.76-0.47,0.66-1.82,0.67-2.71c0.02-2.43,0.84-2.67,1.84-6.42c1.07-4.02,0.23-4.12,1.26-9.4c0.65-3.33,0.96-3.19,1.49-6.42
	c0.24-1.46,0.63-4.3,0.13-7.73c-0.33-2.24-0.78-3.02-1.3-3.58C541.64,153.09,539.14,152.81,538.86,153.34z"/>
<path class="st3" d="M205.1,364.74c-4.46-0.98-4.64-51.14,13.17-100.4c0,0,8.96-24.77,36.74-63.1c0,0,4.21-7,5.96-6.25
	c0.34,0.14,0.36,0.56,0.79,0.73c1.26,0.51,3.42-2.16,4.14-3.01c2.34-2.78,5.61-4.64,8.21-7.17c3.82-3.73,7.32-6.11,16.07-12.63
	c25.62-19.08,25.5-20.85,34.59-25.63c2.21-1.16,7.14-2.31,12.63-5.61c1.66-1,3.36-1.92,5.03-2.89c4.4-2.55,7.08-4.15,7.8-3.38
	c0.34,0.36-0.01,0.8,0.27,1.37c0.91,1.91,6.96,0.83,10.43,0.26c4.46-0.73,8.93-1.46,12.98-1.71c7.58-0.46,9.96,1.03,24.6,1.03h0
	c16.65,0,26.99,0,31.04-2.39c0.36-0.21,1.65-1.02,2.59-0.55c0.78,0.39,0.69,1.34,1.47,2.41c0.78,1.07,1.88,1.49,2.87,1.86
	c8.52,3.2,19.28,3.67,19.28,3.67c0.47,0.02,7.07,0.54,20.29,1.57c7.23,0.57,10.04,0.81,13.86,1.35c5.56,0.78,6.4,1.21,12.85,2.37
	c19.3,3.46,28.95,5.19,33.75,4.44c0.45-0.07,3.01-0.5,3.5,0.45c0.31,0.6-0.5,1.19-0.41,1.98c0.23,1.97,6.11,2.79,8.9,3.45
	c5.28,1.24,8.55,4.03,13.99,8.68c2.72,2.32,12.58,10.74,14.93,24.77c0.14,1.1,0.32,2.92,0.32,5.16c0,0,0.01,9.89-4.45,17.15
	c-0.68,1.1-2.06,3.1-4.34,3.74c-0.64,0.18-0.97,0.27-1.2,0.12c-1.56-1.06,5.6-9.6,6.47-20.34c0.81-10.02-4.18-17.78-5.24-19.35
	c-2.64-3.93-5.69-6.37-8.26-8.43c-2.17-1.74-6.11-4.85-11.92-7.1c-5.79-2.24-14.41-3.99-16.51-4.01c-0.37,0-1.63-0.05-3.15-0.64
	c-0.19-0.08-0.37-0.17-0.61-0.31c-1.72-1.02-3.4-2.56-5.08-1.99c-0.78,0.26-0.9,0.76-1.66,1.25c-2.05,1.34-5.01,0.22-6.07-0.15
	c-5.56-1.97-11.73-1.97-17.2-4.17c-7.38-2.97-20.22-3.36-43.89-5.19c-57.53-4.44-104.66-0.29-104.66,1.21c0,0.22,0.98,0.29,1.05,0.8
	c0.19,1.52-8.3,3.47-13.41,5.2c-5.7,1.93-6.66,3.4-22.74,14.7c-14.7,10.33-18.57,12.45-22.54,15.53c-0.28,0.22-1.45,1.15-3.03,2.5
	c-12.98,11.1-21.49,21.5-21.49,21.5c-6.43,7.86-10.48,14.47-12.85,18.44c-2.62,4.38-3.22,6.21-10.38,19.97
	c-8.97,17.21-12.1,23.14-15.33,32.37c-1.56,4.45-3.31,9.47-4.64,16.35c-4.67,24.14,3.42,32.36-3.8,46.31
	c-1.95,3.76-5.92,9.82-8.94,14.41C207.78,361.73,205.7,364.88,205.1,364.74z"/>
<path class="st1" d="M276.99,457.92"/>
<path class="st0" d="M438.79,128.06c2.28-3.11,6.97-3.06,8.48-3.05c7.19,0.08,12.02,5.58,12.46,6.1c5.56,6.48,4.5,15.15,3.82,20.8
	c-0.63,5.16-1.46,11.96-5.63,16.22c-1.04,1.06-4.62,4.34-7.34,9.93c0,0-0.08,0.16-0.16,0.34c-1.13,2.38-8.98,18.91-2.13,31.15
	c2.69,4.82,5.98,7.41,5.98,7.41c2.33,1.55,5.02,2.64,4.83,3.75c-0.1,0.58-0.95,0.97-1.61,1.09c-2.83,0.5-5.76-3.52-8.05-6.67
	c-1.33-1.83-2.92-4.01-4.27-7.39c-0.62-1.54-2.39-6.35-2.14-12.73c0.12-2.97,0.84-7.26,4.37-15.11
	c4.64-10.33,7.67-10.64,10.74-17.36c5.77-12.67,3.55-30.26-3.84-33.54c-2.52-1.12-7.22-1.28-10.6,0.8
	c-2.46,1.51-5.24,4.83-5.98,4.29c-0.04-0.03-0.07-0.07-0.09-0.1C437.07,133.04,437.34,130.04,438.79,128.06z"/>
<path class="st0" d="M402.29,135.87c1.69,0.13,2.79,0.66,3.47,1.11c6.31,4.13,0.46,16.28,3.76,35.59c1.63,9.57,3.52,9.24,3.08,14.69
	c-1.06,13.28-12.92,23.51-11.43,24.82c0.42,0.38,1.7-0.19,2.26-0.51c1.23-0.71,1.7-1.87,2.21-2.89c1.27-2.55,1.61-1.85,3.61-5.18
	c1.49-2.48,2.38-4.66,2.85-5.94c0.28-0.75,1.32-3.65,1.9-7.72c0.28-1.94,0.66-4.61,0.36-7.72c-0.45-4.62-1.91-5.23-3.09-9.97
	c-0.44-1.76-0.5-5.43-0.59-12.7c-0.09-6.71-0.14-10.06,0-11.28c0.51-4.6,1.42-6.73,0.32-10.08c-0.44-1.36-1.41-4.3-3.77-4.76
	C404.64,132.83,402.39,135.75,402.29,135.87z"/>
<path class="st4" d="M472.22,163.71"/>
<path class="st0" d="M500.81,153.34c-0.05,0.05-0.07,0.09-0.09,0.14c-0.37,1.06,4.08,2.11,5.72,5.49c0.59,1.22,0.67,2.43,0.77,4.17
	c0.09,1.42-0.04,2.24-0.15,3.86c-0.27,3.74,0.07,3.74-0.15,5.87c-0.36,3.38-1.51,6.01-2.5,8.26c-0.65,1.47-0.74,1.43-2.16,4.5
	c-0.43,0.93-0.21,0.47-1.97,4.6c-1.33,3.11-1.87,4.34-1.31,5.53c0.02,0.05,0.47,0.99,0.94,0.94c0.63-0.07,0.63-1.88,1.57-4.99
	c0.54-1.78,1.12-3.11,1.4-3.76c0.49-1.12,0.73-1.48,1.67-3.29c1.53-2.95,2.3-4.42,2.77-5.79c0.4-1.16,0.6-2.29,1-4.54
	c0.65-3.71,0.78-6.35,0.89-8.97c0.03-0.71,0.06-1.47-0.01-2.44c-0.06-0.9-0.26-1.85-0.64-3.72c-0.5-2.46-0.74-3.21-1.4-3.99
	c-0.24-0.27-0.44-0.46-0.6-0.59C504.69,153.16,501.43,152.7,500.81,153.34z"/>
<path class="st5" d="M450.39,346.21"/>
<linearGradient id="SVGID_1_" gradientUnits="userSpaceOnUse" x1="489.21" y1="212.2061" x2="515.388" y2="212.2061">
	<stop  offset="0.4296" style="stop-color:#FF4000"/>
	<stop  offset="0.537" style="stop-color:#F93E00"/>
	<stop  offset="0.6771" style="stop-color:#E93900"/>
	<stop  offset="0.8353" style="stop-color:#CE3000"/>
	<stop  offset="1" style="stop-color:#AA2500"/>
</linearGradient>
<path class="st6" d="M494.89,200.34c-1.78,1.03-2.66,2.49-3.36,3.67c-3.29,5.57-2.24,11.62-1.83,13.76
	c0.42,2.23,1.32,6.97,3.67,7.34c1.16,0.18,2.75-0.7,3.67-1.83c0.53-0.65,0.77-1.3,0.88-1.68c0.81-2.76-1.01-5.6-0.88-5.66
	c0.16-0.08,1.5,4.84,5.2,6.73c2.25,1.15,5.23,1.1,5.81,0c0.72-1.35-2.34-4.01-1.83-4.59c0.59-0.67,4.54,3.26,7.03,2.14
	c2.04-0.92,2.12-4.76,2.14-5.81c0.14-7.04-5.82-11.7-6.12-11.93c-3.36-2.54-6.8-2.94-7.95-3.06
	C499.57,199.24,497.21,199,494.89,200.34z"/>
<linearGradient id="SVGID_2_" gradientUnits="userSpaceOnUse" x1="360.7462" y1="309.7943" x2="412.174" y2="309.7943">
	<stop  offset="0" style="stop-color:#FF7300"/>
	<stop  offset="0.0101" style="stop-color:#FE7500"/>
	<stop  offset="0.1535" style="stop-color:#F08C02"/>
	<stop  offset="0.2893" style="stop-color:#E89903"/>
	<stop  offset="0.4086" style="stop-color:#E59E03"/>
	<stop  offset="0.6777" style="stop-color:#E5BE01"/>
	<stop  offset="0.7995" style="stop-color:#E5C400"/>
	<stop  offset="0.8702" style="stop-color:#E5C500"/>
</linearGradient>
<path class="st7" d="M375.12,284.97c-2.33,0.86-6.95,2.56-10.25,6.49c-6.67,7.96-3.5,19.8-2.39,23.92
	c2.26,8.42,6.91,13.34,9.23,15.72c2.6,2.67,6.73,6.11,8.2,5.13c1.7-1.14-1.47-7.34,0.34-8.54c1.86-1.23,6.66,4.32,8.54,3.08
	c1.82-1.2-1.15-7.35,0.68-8.54c1.75-1.14,5.41,3.84,8.2,2.73c3.34-1.32,2.68-9.8,4.44-9.91c0.88-0.05,1.11,2.06,3.56,4.13
	c0.84,0.71,2.9,2.46,4.21,2.02c2.97-0.99,3.75-13.79-1.96-23.58c-0.55-0.95-3.36-5.62-8.99-9.45c-2.31-1.57-6.63-4.42-12.88-4.91
	C380.95,282.87,377.08,284.25,375.12,284.97z"/>
<path class="st8" d="M562.26,218.57c-4.8,1.34-7.22,5.91-8.59,8.59c-3.27,6.4-4.58,15.13-2.02,16.43c2.23,1.14,6.3-3.94,7.84-2.78
	c1.47,1.11-1.51,6.39-0.76,6.82c0.95,0.55,7.94-6.59,10.11-16.68c0.55-2.54,2.11-9.82-1.26-12.13
	C565.77,217.59,563.3,218.28,562.26,218.57z"/>
<linearGradient id="SVGID_3_" gradientUnits="userSpaceOnUse" x1="521.9023" y1="204.2139" x2="545.9055" y2="204.2139">
	<stop  offset="0.0729" style="stop-color:#8600BF"/>
	<stop  offset="0.1539" style="stop-color:#8016BF"/>
	<stop  offset="0.2085" style="stop-color:#7E20BF"/>
	<stop  offset="0.3213" style="stop-color:#7E1DC3"/>
	<stop  offset="0.428" style="stop-color:#7D14CE"/>
	<stop  offset="0.5321" style="stop-color:#7C06E1"/>
	<stop  offset="0.5653" style="stop-color:#7C00E9"/>
	<stop  offset="0.7358" style="stop-color:#7906EE"/>
	<stop  offset="0.9579" style="stop-color:#7116FC"/>
	<stop  offset="1" style="stop-color:#6F1AFF"/>
</linearGradient>
<path class="st9" d="M529.03,194.44c-1.46,0.72-5.6,2.78-6.82,7.13c-0.62,2.24-0.19,4.08,0.4,6.59c0.95,4.03,3,7.54,3.67,7.34
	c0.27-0.08,0.12-0.72,0.57-2.42c0.37-1.39,0.67-2.54,1.3-2.68c0.99-0.22,2.02,2.24,2.6,2.03c0.73-0.27-0.36-4.54,0.11-4.68
	c0.29-0.08,0.69,1.49,2.32,3.38c0.5,0.58,0.99,1.02,1.97,1.92c1.17,1.07,1.33,1.1,1.44,1.08c1.36-0.15,1.38-5.53,2.54-5.67
	c1.29-0.16,2.31,6.42,3.95,6.4c1.34-0.02,2.55-4.49,2.75-8.22c0.17-3.14,0.42-8.05-3.05-11.2c-2.7-2.44-6.22-2.52-7.38-2.55
	C532.3,192.85,530.05,193.93,529.03,194.44z"/>
<path class="st8" d="M547.08,204.21"/>
<linearGradient id="SVGID_4_" gradientUnits="userSpaceOnUse" x1="436.2108" y1="242.7797" x2="484.6714" y2="242.7797">
	<stop  offset="0.098" style="stop-color:#FF55F1"/>
	<stop  offset="1" style="stop-color:#AA0093"/>
</linearGradient>
<path class="st10" d="M465.14,224.12c-1.14-0.5-2.44-0.91-3.89-1.06c-4.98-0.52-10.14,2.09-13.16,5.76
	c-6.81,8.27,0.05,18.48-7.72,27.34c-2.19,2.5-4.54,3.75-4.11,4.78c0.7,1.69,8.28,1.61,11.67-2.36c1.87-2.19,1.96-4.97,2.59-4.9
	c1.07,0.12,0.32,8.28,2.51,8.85c0.69,0.18,1.5-0.44,2.45-1.19c1.08-0.84,1.48-1.58,2.48-2.93c1.76-2.37,2.63-3.56,3.29-3.45
	c1.27,0.21,0.32,4.16,2.57,6.15c2.83,2.51,9.26,0.59,9.4-0.84c0.06-0.61-1.04-0.72-2.07-2.07c-1.63-2.15-1.83-5.8-0.56-6.59
	c1.39-0.87,3.57,2.31,9.42,3.84c1.74,0.46,4.07,1.07,4.58,0.27c0.93-1.47-5.91-5.01-8.37-12.93c-0.88-2.82-0.28-3.26-1.49-6.81
	c-0.92-2.69-2.01-5.89-4.89-8.66C469.31,226.83,467.64,225.23,465.14,224.12"/>
<linearGradient id="SVGID_5_" gradientUnits="userSpaceOnUse" x1="287.9038" y1="287.0731" x2="314.0818" y2="287.0731">
	<stop  offset="0.1482" style="stop-color:#E9B000"/>
	<stop  offset="0.3075" style="stop-color:#D2B400"/>
	<stop  offset="0.5777" style="stop-color:#B2B900"/>
	<stop  offset="0.804" style="stop-color:#9EBC00"/>
	<stop  offset="0.9573" style="stop-color:#97BD00"/>
	<stop  offset="0.9789" style="stop-color:#96B000"/>
	<stop  offset="1" style="stop-color:#96AA00"/>
</linearGradient>
<path class="st11" d="M293.59,275.2c-1.78,1.03-2.66,2.49-3.36,3.67c-3.29,5.57-2.24,11.62-1.83,13.76
	c0.42,2.23,1.32,6.97,3.67,7.34c1.16,0.18,2.75-0.7,3.67-1.83c0.53-0.65,0.77-1.3,0.88-1.68c0.81-2.76-1.01-5.6-0.88-5.66
	c0.16-0.08,1.5,4.84,5.2,6.73c2.25,1.15,5.23,1.1,5.81,0c0.72-1.35-2.34-4.01-1.83-4.59c0.59-0.67,4.54,3.26,7.03,2.14
	c2.04-0.92,2.12-4.76,2.14-5.81c0.14-7.04-5.82-11.7-6.12-11.93c-3.36-2.54-6.8-2.94-7.95-3.06
	C298.27,274.11,295.9,273.87,293.59,275.2z"/>
<linearGradient id="SVGID_6_" gradientUnits="userSpaceOnUse" x1="371.8113" y1="229.3834" x2="407.3234" y2="229.3834">
	<stop  offset="0" style="stop-color:#3DDEED"/>
	<stop  offset="0.059" style="stop-color:#3EDEEF"/>
	<stop  offset="0.0802" style="stop-color:#41DEF6"/>
	<stop  offset="0.093" style="stop-color:#45DDFF"/>
	<stop  offset="0.1408" style="stop-color:#3FDAFF"/>
	<stop  offset="0.206" style="stop-color:#2DD0FF"/>
	<stop  offset="0.2809" style="stop-color:#11C0FF"/>
	<stop  offset="0.294" style="stop-color:#0BBDFF"/>
	<stop  offset="0.4698" style="stop-color:#0BBDFF"/>
	<stop  offset="0.5892" style="stop-color:#0CC1FF"/>
	<stop  offset="0.7065" style="stop-color:#0DCDFF"/>
	<stop  offset="0.7362" style="stop-color:#0ED1FF"/>
	<stop  offset="0.8361" style="stop-color:#29D7FF"/>
	<stop  offset="0.9062" style="stop-color:#3FDCFF"/>
</linearGradient>
<path class="st12" d="M404.03,214.75c-3.07-2.6-8.61-3.3-12.59-1.05c-7.79,4.4-3.62,17.07-12.59,22.88
	c-3.46,2.24-7.16,2.35-7.04,3.06c0.14,0.85,5.57,1.35,10.76-0.3c3.8-1.21,6.02-3.1,6.34-2.7c0.66,0.83-8.25,8.32-7.42,9.39
	c0.53,0.69,4.2-0.96,6.56-2.52c0.74-0.48,1.65-1.04,3.11-2.25c0.83-0.69,3.67-2.89,4.02-2.56c0.54,0.5-4.9,6.7-4.2,7.4
	c0.43,0.43,2.35-0.41,3.8-1.62c3.39-2.82,3.38-6.88,4.44-6.88c1.55-0.01,1.83,8.73,3.46,8.82c1.83,0.11,4.04-8.92,4.49-17.53
	C407.45,223.5,407.74,217.9,404.03,214.75z"/>
<linearGradient id="SVGID_7_" gradientUnits="userSpaceOnUse" x1="328.3551" y1="268.8649" x2="360.7462" y2="268.8649">
	<stop  offset="0.4296" style="stop-color:#9DFF3F"/>
	<stop  offset="0.503" style="stop-color:#97FF41"/>
	<stop  offset="0.5988" style="stop-color:#87FF47"/>
	<stop  offset="0.7071" style="stop-color:#6CFF52"/>
	<stop  offset="0.8245" style="stop-color:#46FF60"/>
	<stop  offset="0.9479" style="stop-color:#16FF72"/>
	<stop  offset="1" style="stop-color:#00FF7B"/>
</linearGradient>
<path class="st13" d="M350.91,252.82c0,0-1.47-0.66-3.03-0.86c-2.95-0.39-7.59,1.3-10.26,4.69c-5.31,6.74,0.04,15.05-6.02,22.28
	c-1.71,2.04-3.54,3.05-3.21,3.9c0.42,1.06,7.92-3.42,9.1-1.92c0.79,1-1.78,3.86-1.18,4.41c0.13,0.12,0.74,0.44,7.18-4.1
	c3.02-2.13,4.3-3.2,5.13-2.73c0.89,0.5,0.12,2.14,1.27,4.49c0.09,0.18,1.5,3,3,2.86c1.5-0.14,2.47-3.17,2.71-5.23
	c0.34-2.93-0.62-5.31-0.44-5.37c0.31-0.09,2.09,6.8,3.71,6.67c0.39-0.03,0.67-0.47,1.03-1.03c0.88-1.38,0.87-2.85,0.85-3.42
	c-0.08-3.38-0.65-5.48-1.2-9.41c-0.08-0.57-0.24-1.78-0.61-3.4c-0.01-0.06-0.28-1.23-0.55-2.14c-0.47-1.58-1.35-4.53-3.82-7.06
	C353.99,254.84,352.82,253.67,350.91,252.82z"/>
</svg>
