<?xml version="1.0" encoding="iso-8859-1"?>
<!-- Generator: Adobe Illustrator 23.0.0, SVG Export Plug-In . SVG Version: 6.00 Build 0)  -->
<svg version="1.1" id="muguet_1" xmlns="http://www.w3.org/2000/svg" xmlns:xlink="http://www.w3.org/1999/xlink" x="0px" y="0px"
	 viewBox="0 0 214.235 59.157" style="enable-background:new 0 0 214.235 59.157;" xml:space="preserve">
<g>
	
		<linearGradient id="SVGID_1_" gradientUnits="userSpaceOnUse" x1="24.4601" y1="13.5771" x2="24.4601" y2="57.6501" gradientTransform="matrix(1 0 0 -1 0 58.7981)">
		<stop  offset="0" style="stop-color:#00BA36"/>
		<stop  offset="0.1742" style="stop-color:#01BD4B"/>
		<stop  offset="1" style="stop-color:#03CBA9"/>
	</linearGradient>
	<path style="fill:url(#SVGID_1_);" d="M3.94,45.22V1.148h12.84l7.709,30.064l7.623-30.064h12.869v44.073h-7.97V10.527L28.577,45.22
		h-8.261L11.91,10.527V45.22H3.94z"/>
	
		<linearGradient id="SVGID_2_" gradientUnits="userSpaceOnUse" x1="67.2686" y1="12.8561" x2="67.2686" y2="45.5051" gradientTransform="matrix(1 0 0 -1 0 58.7981)">
		<stop  offset="0" style="stop-color:#00BA36"/>
		<stop  offset="0.1742" style="stop-color:#01BD4B"/>
		<stop  offset="1" style="stop-color:#03CBA9"/>
	</linearGradient>
	<path style="fill:url(#SVGID_2_);" d="M73.703,45.22v-4.78c-1.121,1.704-2.594,3.047-4.42,4.028
		c-1.826,0.982-3.753,1.474-5.782,1.474c-2.068,0-3.923-0.472-5.565-1.413c-1.643-0.941-2.831-2.265-3.565-3.969
		c-0.734-1.703-1.101-4.059-1.101-7.064V13.293h8.144v14.671c0,4.49,0.149,7.241,0.449,8.252c0.299,1.013,0.845,1.814,1.638,2.405
		c0.792,0.591,1.797,0.887,3.014,0.887c1.392,0,2.638-0.396,3.739-1.188s1.854-1.773,2.26-2.946
		c0.406-1.173,0.609-4.044,0.609-8.613V13.293h8.145V45.22H73.703z"/>
	
		<linearGradient id="SVGID_3_" gradientUnits="userSpaceOnUse" x1="102.8901" y1="0.6211" x2="102.8901" y2="46.2271" gradientTransform="matrix(1 0 0 -1 0 58.7981)">
		<stop  offset="0" style="stop-color:#00BA36"/>
		<stop  offset="0.1742" style="stop-color:#01BD4B"/>
		<stop  offset="1" style="stop-color:#03CBA9"/>
	</linearGradient>
	<path style="fill:url(#SVGID_3_);" d="M88.948,47.325l9.304,1.173c0.155,1.122,0.512,1.894,1.073,2.314
		c0.772,0.602,1.99,0.902,3.652,0.902c2.125,0,3.719-0.331,4.782-0.992c0.715-0.441,1.255-1.153,1.623-2.135
		c0.252-0.702,0.377-1.994,0.377-3.878v-4.66c-2.434,3.447-5.506,5.171-9.216,5.171c-4.135,0-7.411-1.813-9.826-5.441
		c-1.894-2.866-2.84-6.434-2.84-10.703c0-5.351,1.241-9.44,3.725-12.266c2.482-2.826,5.569-4.239,9.26-4.239
		c3.806,0,6.946,1.733,9.419,5.201v-4.479h7.623v28.65c0,3.769-0.299,6.584-0.898,8.448s-1.439,3.326-2.521,4.39
		c-1.082,1.062-2.527,1.894-4.332,2.495c-1.808,0.601-4.093,0.901-6.855,0.901c-5.217,0-8.917-0.927-11.101-2.78
		c-2.184-1.854-3.275-4.204-3.275-7.05C88.92,48.066,88.929,47.725,88.948,47.325z M96.223,28.595c0,3.388,0.633,5.867,1.898,7.44
		c1.266,1.574,2.826,2.36,4.681,2.36c1.99,0,3.671-0.807,5.043-2.42c1.372-1.613,2.057-4.003,2.057-7.17
		c0-3.307-0.656-5.762-1.97-7.365s-2.976-2.405-4.985-2.405c-1.952,0-3.56,0.787-4.826,2.36
		C96.856,22.969,96.223,25.369,96.223,28.595z"/>
	
		<linearGradient id="SVGID_4_" gradientUnits="userSpaceOnUse" x1="139.7861" y1="12.8561" x2="139.7861" y2="45.5051" gradientTransform="matrix(1 0 0 -1 0 58.7981)">
		<stop  offset="0" style="stop-color:#00BA36"/>
		<stop  offset="0.1742" style="stop-color:#01BD4B"/>
		<stop  offset="1" style="stop-color:#03CBA9"/>
	</linearGradient>
	<path style="fill:url(#SVGID_4_);" d="M146.22,45.22v-4.78c-1.121,1.704-2.595,3.047-4.42,4.028
		c-1.826,0.982-3.754,1.474-5.782,1.474c-2.068,0-3.923-0.472-5.565-1.413s-2.831-2.265-3.564-3.969
		c-0.735-1.703-1.102-4.059-1.102-7.064V13.293h8.145v14.671c0,4.49,0.149,7.241,0.449,8.252c0.299,1.013,0.845,1.814,1.638,2.405
		c0.792,0.591,1.797,0.887,3.014,0.887c1.392,0,2.638-0.396,3.739-1.188s1.854-1.773,2.261-2.946
		c0.405-1.173,0.608-4.044,0.608-8.613V13.293h8.145V45.22H146.22z"/>
	
		<linearGradient id="SVGID_5_" gradientUnits="userSpaceOnUse" x1="174.2223" y1="12.8561" x2="174.2223" y2="46.2251" gradientTransform="matrix(1 0 0 -1 0 58.7981)">
		<stop  offset="0" style="stop-color:#00BA36"/>
		<stop  offset="0.1742" style="stop-color:#01BD4B"/>
		<stop  offset="1" style="stop-color:#03CBA9"/>
	</linearGradient>
	<path style="fill:url(#SVGID_5_);" d="M180.045,35.059l8.115,1.413c-1.044,3.086-2.691,5.437-4.942,7.05s-5.067,2.42-8.448,2.42
		c-5.353,0-9.313-1.813-11.884-5.441c-2.028-2.906-3.043-6.573-3.043-11.003c0-5.291,1.333-9.435,4-12.431
		c2.666-2.996,6.038-4.494,10.115-4.494c4.579,0,8.192,1.568,10.84,4.705c2.646,3.137,3.913,7.942,3.797,14.416h-20.404
		c0.058,2.506,0.715,4.454,1.971,5.848c1.256,1.393,2.821,2.089,4.695,2.089c1.275,0,2.348-0.36,3.217-1.082
		C178.943,37.825,179.599,36.663,180.045,35.059z M180.508,26.521c-0.058-2.445-0.666-4.304-1.825-5.577
		c-1.16-1.272-2.57-1.909-4.232-1.909c-1.777,0-3.246,0.672-4.405,2.014c-1.159,1.343-1.729,3.167-1.71,5.472H180.508z"/>
	
		<linearGradient id="SVGID_6_" gradientUnits="userSpaceOnUse" x1="200.9391" y1="12.8561" x2="200.9391" y2="56.7781" gradientTransform="matrix(1 0 0 -1 0 58.7981)">
		<stop  offset="0" style="stop-color:#00BA36"/>
		<stop  offset="0.1742" style="stop-color:#01BD4B"/>
		<stop  offset="1" style="stop-color:#03CBA9"/>
	</linearGradient>
	<path style="fill:url(#SVGID_6_);" d="M209.346,13.293v6.734h-5.565v12.867c0,2.605,0.053,4.124,0.159,4.555
		c0.106,0.432,0.349,0.787,0.725,1.067c0.377,0.281,0.836,0.421,1.377,0.421c0.754,0,1.845-0.271,3.275-0.812l0.695,6.554
		c-1.894,0.842-4.038,1.263-6.435,1.263c-1.468,0-2.792-0.256-3.971-0.767c-1.179-0.512-2.043-1.173-2.594-1.984
		s-0.933-1.909-1.145-3.292c-0.174-0.981-0.261-2.966-0.261-5.952v-13.92h-3.739v-6.734h3.739V6.95l8.173-4.93v11.273H209.346z"/>
</g>
</svg>
