<?xml version="1.0" standalone="no"?><!DOCTYPE svg PUBLIC "-//W3C//DTD SVG 1.1//EN" "http://www.w3.org/Graphics/SVG/1.1/DTD/svg11.dtd"><svg t="1554289189920" class="icon" style="" viewBox="0 0 1024 1024" version="1.1" xmlns="http://www.w3.org/2000/svg" p-id="2989" xmlns:xlink="http://www.w3.org/1999/xlink" width="200" height="200"><defs><style type="text/css"></style></defs><path d="M341.3 448h85.3v213.3h-85.3z" p-id="2990" fill="#13227a"></path><path d="M896 704h-85.3V405.3c0-164.7-134-298.7-298.7-298.7s-298.7 134-298.7 298.7V704H128v85.3h236.2c10.4 72.3 72.7 128 147.8 128s137.4-55.7 147.8-128H896V704zM298.7 405.3C298.7 287.7 394.4 192 512 192s213.3 95.7 213.3 213.3V704H298.7V405.3zM512 832c-27.8 0-51.5-17.8-60.3-42.7h120.7c-8.9 24.9-32.6 42.7-60.4 42.7z" p-id="2991" fill="#13227a"></path></svg>