<?xml version="1.0" standalone="no"?><!DOCTYPE svg PUBLIC "-//W3C//DTD SVG 1.1//EN" "http://www.w3.org/Graphics/SVG/1.1/DTD/svg11.dtd"><svg t="1554289273123" class="icon" style="" viewBox="0 0 1024 1024" version="1.1" xmlns="http://www.w3.org/2000/svg" p-id="3549" xmlns:xlink="http://www.w3.org/1999/xlink" width="200" height="200"><defs><style type="text/css"></style></defs><path d="M512 938.7C276.7 938.7 85.3 747.2 85.3 512S276.7 85.3 512 85.3 938.7 276.7 938.7 512 747.3 938.7 512 938.7z m0-768c-188.2 0-341.3 153.1-341.3 341.3S323.8 853.3 512 853.3 853.3 700.2 853.3 512 700.2 170.7 512 170.7z" p-id="3550" fill="#2c2c2c"></path><path d="M554.7 341.3c0-23.6-19.1-42.7-42.7-42.7s-42.7 19.1-42.7 42.7v256h85.3v-256z" p-id="3551" fill="#2c2c2c"></path><path d="M512 682.7m-42.7 0a42.7 42.7 0 1 0 85.4 0 42.7 42.7 0 1 0-85.4 0Z" p-id="3552" fill="#2c2c2c"></path></svg>