<?xml version="1.0" encoding="iso-8859-1"?>
<!-- Generator: Adobe Illustrator 23.0.0, SVG Export Plug-In . SVG Version: 6.00 Build 0)  -->
<svg version="1.1" id="&#x56FE;&#x5C42;_1" xmlns="http://www.w3.org/2000/svg" xmlns:xlink="http://www.w3.org/1999/xlink" x="0px"
	 y="0px" viewBox="0 0 90.644 221.36" style="enable-background:new 0 0 90.644 221.36;" xml:space="preserve">
<path style="fill:#39B54A;" d="M-446.313,196.386c-40.86-39.931-58.305-87.857-58.305-87.857
	c-8.859-24.338-16.182-44.457-15.175-71.883c1.228-33.447,13.324-36.332,18.181-70.596c7.956-56.136-17.287-98.956-8.943-102.84
	c6.026-2.805,21.994,19.984,23.001,21.435c10.966,15.811,22.758,40.235,29.164,114.94c0.423,4.935,1.214,21.093,2.356,36.327
	c0.167,2.232,0.905,11.988,1.862,25.362c0.147,2.05,0.264,3.709,0.277,3.885c1.752,24.793-1.153,58.451,5.985,85.702
	c6.179,23.589,19.379,40.453,21.96,39.433c5.337-2.109-22.809-85.372-3.377-106.5c3.967-4.313,9.688-8.197,9.688-8.197
	c5.517-3.745,15.097-10.249,26.828-8.943c4.62,0.515,13.714,2.702,14.159,6.707c0.648,5.824-17.961,6.776-25.337,21.611
	c-3.671,7.382-3.205,15.477-2.981,19.376c0.415,7.221,2.349,11.326,4.471,17.885c1.114,3.441,5.836,18.551,6.055,32.361
	c0.117,7.361,0.341,23.816-10.689,35.63c-2.445,2.618-6.976,7.472-13.81,8.497C-431.106,210.244-440.183,202.376-446.313,196.386z"
	/>
<path style="fill:#FFFFFF;stroke:#000000;stroke-miterlimit:10;" d="M-334.526,25.201"/>
<path style="fill:#FFFFFF;stroke:#000000;stroke-miterlimit:10;" d="M-340.117,43.571"/>
<path style="fill:#FFFFFF;stroke:#000000;stroke-miterlimit:10;" d="M-340.117,50.759"/>
<path style="fill:#8CC63F;" d="M7.424,103.381c2.846-12.764,6.099-27.35,18.275-39.201c16.126-15.694,33.685-12.749,40.734-27.955
	c6.744-14.547-3.161-30.544,1.597-32.747c3.376-1.563,11.812,4.891,15.175,13.578c2.981,7.7,1.509,15.942-13.578,49.52
	c-5.213,11.602-7.819,17.402-10.383,22.364c-24.446,47.309-8.355,124.331-19.169,126.994C30.141,218.38-4.901,158.656,7.424,103.381
	z"/>
<path style="fill:#FFFFFF;stroke:#000000;stroke-miterlimit:10;" d="M-197.487-105.762"/>
<path style="fill:#FFFFFF;stroke:#000000;stroke-miterlimit:10;" d="M-304.476-18.383"/>
<path style="fill:#009245;" d="M-323.508,6.649c0.769,1.436,7.035,0.354,11.929-2.718c6.272-3.937,9.364-10.559,8.683-11.164
	c-0.427-0.38-1.984,1.921-6.053,3.263c-2.961,0.977-6.766,1.285-6.766,1.285l0,0C-315.719-2.68-324.559,4.686-323.508,6.649z"/>
<path style="fill:#009245;" d="M-84.79-106.281c-0.168,0.608,1.906,1.739,3.429,2.319c1.77,0.674,4.536,1.267,4.801,0.653
	c0.294-0.68-2.419-2.989-5.49-3.364C-83.063-106.797-84.654-106.776-84.79-106.281z"/>
<path style="fill:#39B54A;" d="M-291.301-44.999c3.934-0.542,9.064-0.532,13.58,2.197c18.299,11.059,11.227,57.547,18.373,58.912
	c0.195,0.037,1.643,0.314,2.197-0.399c0.881-1.134-1.344-3.681-2.796-7.189c-0.671-1.622-0.985-2.985-1.598-8.987
	c-1.226-12.009-0.601-12.741-1.598-18.572c-1.008-5.896-2.46-9.904-3.195-11.782c-1.715-4.379-3.08-7.758-6.391-10.984
	c-1.619-1.577-3.609-2.716-7.589-4.993c-2.589-1.481-4.788-2.527-7.189-2.197c-1.394,0.191-2.107,0.743-2.396,0.999
	C-291.089-46.947-291.265-45.467-291.301-44.999z"/>
<path style="fill:#39B54A;" d="M-269.131-88.944c-2.589-1.335-2.356-8.482,0.095-13.661c1.854-3.918,4.69-6.102,5.831-6.96
	c4.029-3.029,8.075-3.706,11.661-4.262c4.013-0.622,9.897-1.528,16.338,1.155c5.233,2.18,8.286,5.67,11.76,9.641
	c3.443,3.936,5.407,7.464,6.58,9.597c3.124,5.685,4.534,10.43,5.668,14.327c0.776,2.666,2.399,8.724,3.147,16.817
	c0.189,2.049,0.323,4.237,0.217,15.298c-0.138,14.373-0.386,12.992-0.389,20.39c-0.006,14.058,0.889,21.25-1.88,22.247
	c-0.631,0.227-1.527,0.16-2.037-0.313c-1.676-1.558,2.389-6.085,1.723-12.69c-0.234-2.322-0.778-2.177-0.827-4.35
	c-0.05-2.203,0.476-3.885,0.476-8.048c0,0,0.294-9.291,0.228-17.983c-0.065-8.52-0.098-12.78-0.872-18.117
	c-0.992-6.837-2.572-11.91-3.21-13.866c-1.495-4.582-3.366-10.317-7.681-16.641c-3.64-5.336-7.486-10.973-14.857-13.735
	c-5.387-2.019-10.136-1.543-12.191-1.335c-3.741,0.377-9.314,1.008-13.395,5.473c-2.354,2.575-5.451,7.792-3.813,11.606
	c0.737,1.716,2.194,2.593,1.815,3.796C-265.17-89.21-267.672-88.191-269.131-88.944z"/>
<path style="fill:none;stroke:#000000;stroke-miterlimit:10;" d="M-179.193-87.658"/>
<path style="fill:#39B54A;" d="M-189.135-109.219c-1.526,1.72,1.083,5.317,2.764,11.595c0.582,2.171,0.853,4.702,1.373,9.674
	c1.601,15.319,1.487,27.807,2.608,37.549c0.502,4.361,0.815,6.529,0.983,7.551c0.794,4.831,1.306,5.673,0.842,9.398
	c-0.146,1.17-0.256,2.038-0.292,2.258c-0.356,2.214-1.976,14.514-2.932,27.048c-1.527,20.043,0.76,12.929,0.043,20.046
	c-0.101,0.999-0.471,4.366,1.55,6.718c0.758,0.882,2.116,1.929,2.791,1.55c1.036-0.58-0.365-4.055-1.161-9.381
	c-0.415-2.774-0.45-4.979-0.521-9.387c-0.106-6.551,0.698-10.047,1.984-19.709c1.319-9.908,1.978-14.862,1.963-18.649
	c-0.03-7.394-1.212-7.601-2.644-19.53c-1.536-12.796-1.558-24.077-1.557-25.55c0.002-1.823,0.033-8.877-0.462-18.226
	c-0.402-7.593-0.919-12.319-3.696-13.475C-186.674-110.229-188.342-110.113-189.135-109.219z"/>
<path style="fill:#39B54A;" d="M-21.124-101.785c-0.308,0.581,2.336,1.652,3.676,4.24c1.062,2.05,0.546,3.586-0.423,9.258
	c-1.734,10.146-1.523,13.639-3.093,16.835c-0.421,0.856-0.713,1.789-1.298,3.656c-0.681,2.172-0.768,2.956-0.347,3.397
	c0.38,0.398,1.142,0.482,1.622,0.186c0.763-0.471,0.665-1.817,0.672-2.709c0.021-2.427,0.837-2.668,1.835-6.423
	c1.07-4.024,0.231-4.12,1.262-9.405c0.65-3.329,0.963-3.192,1.491-6.423c0.239-1.464,0.633-4.297,0.133-7.734
	c-0.325-2.235-0.78-3.024-1.301-3.578C-18.348-102.028-20.845-102.312-21.124-101.785z"/>
<path style="fill:#009245;" d="M-354.888,109.622c-4.456-0.977-4.641-51.143,13.173-100.395c0,0,8.959-24.77,36.74-63.097
	c0,0,4.212-6.998,5.963-6.249c0.338,0.144,0.361,0.555,0.786,0.726c1.26,0.505,3.423-2.158,4.142-3.012
	c2.34-2.782,5.611-4.637,8.214-7.174c3.824-3.726,7.321-6.113,16.072-12.63c25.616-19.076,25.497-20.851,34.589-25.625
	c2.208-1.16,7.143-2.306,12.635-5.613c1.658-0.998,3.357-1.924,5.032-2.893c4.402-2.547,7.078-4.148,7.805-3.377
	c0.337,0.358-0.006,0.803,0.266,1.374c0.912,1.915,6.955,0.831,10.434,0.26c4.456-0.731,8.934-1.465,12.985-1.708
	c7.576-0.456,9.961,1.025,24.602,1.025h0c16.645,0,26.993,0,31.04-2.388c0.364-0.215,1.648-1.022,2.589-0.546
	c0.778,0.393,0.694,1.344,1.469,2.406c0.783,1.074,1.878,1.485,2.874,1.86c8.519,3.201,19.276,3.671,19.276,3.671
	c0.466,0.02,7.074,0.537,20.29,1.571c7.235,0.566,10.041,0.814,13.865,1.353c5.558,0.783,6.398,1.211,12.85,2.367
	c19.3,3.459,28.95,5.188,33.748,4.44c0.449-0.07,3.014-0.498,3.503,0.45c0.31,0.601-0.503,1.191-0.412,1.979
	c0.228,1.966,6.115,2.793,8.902,3.445c5.276,1.236,8.551,4.033,13.992,8.68c2.722,2.325,12.576,10.741,14.93,24.766
	c0.136,1.102,0.317,2.917,0.32,5.161c0,0,0.014,9.885-4.446,17.146c-0.677,1.101-2.058,3.101-4.343,3.744
	C8.353-38.481,8.03-38.39,7.8-38.547c-1.562-1.065,5.599-9.596,6.472-20.34c0.815-10.021-4.181-17.782-5.237-19.351
	c-2.642-3.927-5.692-6.375-8.255-8.431c-2.167-1.738-6.107-4.851-11.919-7.102c-5.795-2.245-14.406-3.993-16.505-4.011
	c-0.368-0.003-1.634-0.046-3.146-0.643c-0.193-0.076-0.375-0.172-0.607-0.31c-1.717-1.015-3.399-2.558-5.078-1.987
	c-0.779,0.265-0.9,0.761-1.657,1.255c-2.047,1.336-5.012,0.224-6.071-0.151c-5.563-1.968-11.728-1.97-17.203-4.17
	c-7.385-2.968-20.218-3.364-43.892-5.193c-57.534-4.445-104.663-0.291-104.663,1.208c0,0.216,0.982,0.295,1.046,0.8
	c0.192,1.516-8.302,3.471-13.411,5.201c-5.699,1.93-6.656,3.399-22.737,14.7c-14.701,10.331-18.566,12.45-22.54,15.525
	c-0.283,0.219-1.445,1.149-3.026,2.501c-12.979,11.099-21.491,21.499-21.491,21.499c-6.43,7.857-10.478,14.468-12.853,18.436
	c-2.624,4.382-3.217,6.214-10.383,19.968c-8.968,17.212-12.104,23.141-15.328,32.372c-1.555,4.453-3.308,9.471-4.639,16.348
	c-4.673,24.14,3.418,32.361-3.8,46.311c-1.945,3.759-5.923,9.817-8.938,14.408C-352.204,106.603-354.287,109.754-354.888,109.622z"
	/>
<path style="fill:#FFFFFF;stroke:#000000;stroke-miterlimit:10;" d="M-283,202.799"/>
<path style="fill:#39B54A;" d="M-121.199-127.065c2.276-3.114,6.965-3.065,8.483-3.049c7.194,0.075,12.018,5.582,12.46,6.097
	c5.56,6.476,4.504,15.152,3.817,20.802c-0.628,5.165-1.456,11.964-5.626,16.216c-1.038,1.059-4.621,4.342-7.338,9.925
	c0,0-0.077,0.158-0.163,0.339c-1.132,2.385-8.976,18.91-2.132,31.145c2.694,4.816,5.98,7.414,5.98,7.414
	c2.326,1.551,5.017,2.639,4.826,3.753c-0.099,0.577-0.95,0.972-1.608,1.087c-2.829,0.495-5.757-3.524-8.049-6.669
	c-1.334-1.831-2.922-4.01-4.272-7.395c-0.616-1.544-2.386-6.354-2.136-12.728c0.116-2.966,0.842-7.257,4.374-15.111
	c4.645-10.326,7.672-10.641,10.737-17.364c5.774-12.667,3.554-30.257-3.844-33.535c-2.518-1.116-7.225-1.278-10.604,0.795
	c-2.46,1.509-5.241,4.833-5.978,4.285c-0.041-0.03-0.065-0.065-0.088-0.103C-122.921-122.085-122.649-125.081-121.199-127.065z"/>
<path style="fill:#39B54A;" d="M-157.692-119.252c1.689,0.128,2.791,0.662,3.475,1.109c6.306,4.128,0.465,16.281,3.759,35.591
	c1.632,9.568,3.519,9.235,3.082,14.687c-1.063,13.278-12.916,23.508-11.432,24.825c0.423,0.375,1.704-0.186,2.257-0.506
	c1.235-0.713,1.702-1.871,2.213-2.894c1.271-2.547,1.607-1.847,3.605-5.18c1.486-2.478,2.38-4.664,2.85-5.937
	c0.278-0.752,1.32-3.654,1.9-7.718c0.277-1.942,0.657-4.606,0.356-7.717c-0.446-4.619-1.91-5.231-3.087-9.973
	c-0.437-1.762-0.495-5.433-0.594-12.704c-0.091-6.706-0.136-10.059,0-11.279c0.513-4.596,1.422-6.73,0.324-10.084
	c-0.445-1.358-1.409-4.302-3.767-4.758C-155.351-122.292-157.6-119.375-157.692-119.252z"/>
<path style="fill:none;stroke:#000000;stroke-miterlimit:10;" d="M-87.767-91.416"/>
<path style="fill:#39B54A;" d="M-59.18-101.785c-0.051,0.052-0.066,0.089-0.085,0.143c-0.366,1.062,4.08,2.108,5.717,5.495
	c0.59,1.221,0.665,2.435,0.772,4.168c0.088,1.42-0.037,2.239-0.154,3.86c-0.272,3.741,0.071,3.742-0.154,5.867
	c-0.359,3.382-1.509,6.006-2.497,8.262c-0.645,1.473-0.741,1.43-2.158,4.503c-0.43,0.932-0.205,0.468-1.97,4.596
	c-1.33,3.112-1.869,4.338-1.313,5.534c0.024,0.053,0.47,0.99,0.938,0.938c0.634-0.071,0.633-1.883,1.568-4.987
	c0.536-1.777,1.116-3.109,1.401-3.758c0.492-1.118,0.725-1.482,1.667-3.292c1.533-2.947,2.3-4.42,2.774-5.785
	c0.404-1.161,0.602-2.287,1-4.54c0.655-3.706,0.775-6.346,0.895-8.969c0.033-0.714,0.057-1.467-0.012-2.443
	c-0.064-0.899-0.256-1.851-0.639-3.717c-0.504-2.459-0.736-3.213-1.404-3.989c-0.237-0.275-0.436-0.457-0.598-0.585
	C-55.294-101.965-58.559-102.424-59.18-101.785z"/>
<path style="fill:none;stroke:#000000;stroke-width:2;stroke-miterlimit:10;" d="M-109.6,91.092"/>
<linearGradient id="SVGID_1_" gradientUnits="userSpaceOnUse" x1="-70.7767" y1="-42.9165" x2="-44.5987" y2="-42.9165">
	<stop  offset="0.4296" style="stop-color:#FF4000"/>
	<stop  offset="0.537" style="stop-color:#F93E00"/>
	<stop  offset="0.6771" style="stop-color:#E93900"/>
	<stop  offset="0.8353" style="stop-color:#CE3000"/>
	<stop  offset="1" style="stop-color:#AA2500"/>
</linearGradient>
<path style="fill:url(#SVGID_1_);" d="M-65.092-54.786c-1.777,1.026-2.664,2.486-3.364,3.67c-3.294,5.571-2.24,11.621-1.835,13.762
	c0.421,2.23,1.318,6.974,3.67,7.34c1.162,0.181,2.749-0.696,3.67-1.835c0.527-0.652,0.767-1.304,0.878-1.679
	c0.811-2.761-1.008-5.598-0.878-5.661c0.159-0.076,1.495,4.839,5.199,6.728c2.254,1.15,5.227,1.098,5.811,0
	c0.72-1.353-2.342-4.013-1.835-4.587c0.594-0.673,4.535,3.264,7.034,2.141c2.042-0.918,2.12-4.764,2.141-5.811
	c0.142-7.039-5.817-11.7-6.117-11.927c-3.358-2.544-6.799-2.941-7.952-3.058C-60.412-55.881-62.777-56.122-65.092-54.786z"/>
<linearGradient id="SVGID_2_" gradientUnits="userSpaceOnUse" x1="-199.2405" y1="54.6717" x2="-147.8127" y2="54.6717">
	<stop  offset="0" style="stop-color:#FF7300"/>
	<stop  offset="0.0101" style="stop-color:#FE7500"/>
	<stop  offset="0.1535" style="stop-color:#F08C02"/>
	<stop  offset="0.2893" style="stop-color:#E89903"/>
	<stop  offset="0.4086" style="stop-color:#E59E03"/>
	<stop  offset="0.6777" style="stop-color:#E5BE01"/>
	<stop  offset="0.7995" style="stop-color:#E5C400"/>
	<stop  offset="0.8702" style="stop-color:#E5C500"/>
</linearGradient>
<path style="fill:url(#SVGID_2_);" d="M-184.87,29.846c-2.326,0.855-6.953,2.557-10.251,6.492
	c-6.674,7.963-3.496,19.805-2.392,23.919c2.261,8.424,6.913,13.338,9.226,15.718c2.596,2.672,6.735,6.111,8.201,5.126
	c1.697-1.14-1.466-7.343,0.342-8.543c1.855-1.231,6.656,4.322,8.543,3.075c1.818-1.201-1.145-7.348,0.683-8.542
	c1.747-1.141,5.414,3.839,8.201,2.734c3.338-1.325,2.684-9.801,4.442-9.909c0.876-0.054,1.113,2.058,3.561,4.131
	c0.838,0.71,2.903,2.459,4.212,2.022c2.97-0.991,3.75-13.787-1.964-23.58c-0.553-0.947-3.356-5.62-8.988-9.446
	c-2.307-1.567-6.627-4.425-12.881-4.906C-179.032,27.746-182.908,29.125-184.87,29.846z"/>
<path style="fill:#FCEE21;" d="M2.276-36.557c-4.797,1.341-7.221,5.912-8.594,8.594c-3.275,6.398-4.581,15.126-2.022,16.429
	c2.232,1.136,6.304-3.935,7.835-2.78c1.472,1.111-1.507,6.393-0.758,6.824c0.945,0.545,7.938-6.589,10.11-16.682
	c0.547-2.544,2.113-9.822-1.264-12.132C5.782-37.537,3.315-36.847,2.276-36.557z"/>
<linearGradient id="SVGID_3_" gradientUnits="userSpaceOnUse" x1="-38.0843" y1="-50.9087" x2="-14.0812" y2="-50.9087">
	<stop  offset="0.0729" style="stop-color:#8600BF"/>
	<stop  offset="0.1539" style="stop-color:#8016BF"/>
	<stop  offset="0.2085" style="stop-color:#7E20BF"/>
	<stop  offset="0.3213" style="stop-color:#7E1DC3"/>
	<stop  offset="0.428" style="stop-color:#7D14CE"/>
	<stop  offset="0.5321" style="stop-color:#7C06E1"/>
	<stop  offset="0.5653" style="stop-color:#7C00E9"/>
	<stop  offset="0.7358" style="stop-color:#7906EE"/>
	<stop  offset="0.9579" style="stop-color:#7116FC"/>
	<stop  offset="1" style="stop-color:#6F1AFF"/>
</linearGradient>
<path style="fill:url(#SVGID_3_);" d="M-30.961-60.68c-1.455,0.723-5.604,2.784-6.818,7.132c-0.625,2.238-0.19,4.075,0.404,6.593
	c0.953,4.031,2.997,7.541,3.67,7.34c0.274-0.082,0.123-0.722,0.574-2.417c0.369-1.388,0.674-2.535,1.298-2.676
	c0.986-0.223,2.025,2.241,2.595,2.027c0.73-0.273-0.358-4.538,0.115-4.677c0.287-0.084,0.687,1.492,2.318,3.38
	c0.501,0.579,0.992,1.023,1.97,1.916c1.175,1.075,1.326,1.096,1.436,1.084c1.355-0.146,1.378-5.529,2.539-5.672
	c1.292-0.158,2.312,6.424,3.948,6.401c1.345-0.018,2.552-4.489,2.748-8.216c0.165-3.142,0.424-8.051-3.054-11.199
	c-2.702-2.445-6.216-2.52-7.381-2.545C-27.688-62.274-29.939-61.188-30.961-60.68z"/>
<path style="fill:#FCEE21;" d="M-12.906-50.909"/>
<linearGradient id="SVGID_4_" gradientUnits="userSpaceOnUse" x1="-123.7759" y1="-12.3429" x2="-75.3152" y2="-12.3429">
	<stop  offset="0.098" style="stop-color:#FF55F1"/>
	<stop  offset="1" style="stop-color:#AA0093"/>
</linearGradient>
<path style="fill:url(#SVGID_4_);" d="M-94.844-31.002c-1.135-0.504-2.441-0.907-3.889-1.058
	c-4.984-0.522-10.136,2.086-13.157,5.756c-6.806,8.269,0.05,18.475-7.721,27.343c-2.194,2.504-4.543,3.747-4.114,4.784
	c0.7,1.691,8.282,1.612,11.67-2.361c1.866-2.187,1.965-4.973,2.589-4.904c1.071,0.118,0.322,8.278,2.51,8.851
	c0.692,0.181,1.496-0.444,2.45-1.186c1.076-0.836,1.482-1.583,2.48-2.931c1.756-2.371,2.633-3.557,3.293-3.449
	c1.267,0.208,0.318,4.163,2.568,6.154c2.834,2.507,9.263,0.591,9.399-0.844c0.057-0.605-1.044-0.716-2.071-2.071
	c-1.631-2.152-1.828-5.797-0.565-6.589c1.387-0.869,3.57,2.307,9.416,3.844c1.739,0.457,4.071,1.07,4.583,0.265
	c0.935-1.471-5.906-5.007-8.365-12.929c-0.875-2.82-0.283-3.255-1.492-6.806c-0.916-2.689-2.006-5.891-4.895-8.66
	C-90.678-28.293-92.347-29.893-94.844-31.002"/>
<linearGradient id="SVGID_5_" gradientUnits="userSpaceOnUse" x1="-272.0829" y1="31.9505" x2="-245.9049" y2="31.9505">
	<stop  offset="0.1482" style="stop-color:#E9B000"/>
	<stop  offset="0.3075" style="stop-color:#D2B400"/>
	<stop  offset="0.5777" style="stop-color:#B2B900"/>
	<stop  offset="0.804" style="stop-color:#9EBC00"/>
	<stop  offset="0.9573" style="stop-color:#97BD00"/>
	<stop  offset="0.9789" style="stop-color:#96B000"/>
	<stop  offset="1" style="stop-color:#96AA00"/>
</linearGradient>
<path style="fill:url(#SVGID_5_);" d="M-266.398,20.081c-1.777,1.026-2.664,2.486-3.364,3.67c-3.294,5.571-2.24,11.621-1.835,13.762
	c0.421,2.23,1.318,6.974,3.67,7.34c1.162,0.181,2.749-0.696,3.67-1.835c0.527-0.652,0.767-1.304,0.878-1.679
	c0.811-2.761-1.008-5.598-0.878-5.661c0.159-0.076,1.495,4.839,5.199,6.728c2.254,1.15,5.227,1.098,5.811,0
	c0.72-1.353-2.342-4.013-1.835-4.587c0.594-0.673,4.535,3.264,7.034,2.141c2.042-0.918,2.12-4.764,2.141-5.811
	c0.142-7.039-5.817-11.7-6.117-11.927c-3.358-2.544-6.799-2.941-7.952-3.058C-261.718,18.986-264.083,18.745-266.398,20.081z"/>
<linearGradient id="SVGID_6_" gradientUnits="userSpaceOnUse" x1="-188.1754" y1="-25.7392" x2="-152.6633" y2="-25.7392">
	<stop  offset="0" style="stop-color:#3DDEED"/>
	<stop  offset="0.059" style="stop-color:#3EDEEF"/>
	<stop  offset="0.0802" style="stop-color:#41DEF6"/>
	<stop  offset="0.093" style="stop-color:#45DDFF"/>
	<stop  offset="0.1408" style="stop-color:#3FDAFF"/>
	<stop  offset="0.206" style="stop-color:#2DD0FF"/>
	<stop  offset="0.2809" style="stop-color:#11C0FF"/>
	<stop  offset="0.294" style="stop-color:#0BBDFF"/>
	<stop  offset="0.4698" style="stop-color:#0BBDFF"/>
	<stop  offset="0.5892" style="stop-color:#0CC1FF"/>
	<stop  offset="0.7065" style="stop-color:#0DCDFF"/>
	<stop  offset="0.7362" style="stop-color:#0ED1FF"/>
	<stop  offset="0.8361" style="stop-color:#29D7FF"/>
	<stop  offset="0.9062" style="stop-color:#3FDCFF"/>
</linearGradient>
<path style="fill:url(#SVGID_6_);" d="M-155.959-40.37c-3.071-2.605-8.608-3.299-12.588-1.051
	c-7.789,4.4-3.621,17.074-12.585,22.875c-3.46,2.239-7.158,2.352-7.04,3.063c0.142,0.852,5.565,1.348,10.76-0.302
	c3.805-1.209,6.018-3.102,6.341-2.697c0.663,0.831-8.251,8.316-7.42,9.386c0.534,0.686,4.196-0.957,6.564-2.517
	c0.735-0.484,1.65-1.044,3.108-2.253c0.831-0.689,3.667-2.891,4.022-2.562c0.541,0.502-4.904,6.701-4.201,7.397
	c0.431,0.427,2.346-0.407,3.805-1.618c3.392-2.816,3.383-6.876,4.44-6.881c1.548-0.007,1.828,8.725,3.455,8.824
	c1.831,0.111,4.044-8.924,4.487-17.533C-152.534-31.619-152.246-37.222-155.959-40.37z"/>
<linearGradient id="SVGID_7_" gradientUnits="userSpaceOnUse" x1="-231.6315" y1="13.7423" x2="-199.2405" y2="13.7423">
	<stop  offset="0.4296" style="stop-color:#9DFF3F"/>
	<stop  offset="0.503" style="stop-color:#97FF41"/>
	<stop  offset="0.5988" style="stop-color:#87FF47"/>
	<stop  offset="0.7071" style="stop-color:#6CFF52"/>
	<stop  offset="0.8245" style="stop-color:#46FF60"/>
	<stop  offset="0.9479" style="stop-color:#16FF72"/>
	<stop  offset="1" style="stop-color:#00FF7B"/>
</linearGradient>
<path style="fill:url(#SVGID_7_);" d="M-209.077-2.304c0,0-1.471-0.656-3.032-0.862c-2.949-0.391-7.586,1.299-10.257,4.69
	c-5.305,6.738,0.039,15.054-6.019,22.28c-1.711,2.041-3.542,3.053-3.207,3.898c0.419,1.059,7.924-3.425,9.098-1.923
	c0.785,1.004-1.784,3.856-1.181,4.409c0.128,0.118,0.739,0.443,7.176-4.1c3.023-2.134,4.3-3.202,5.126-2.734
	c0.888,0.504,0.117,2.142,1.267,4.491c0.089,0.182,1.501,3.001,3.004,2.856c1.498-0.144,2.467-3.169,2.709-5.231
	c0.344-2.933-0.624-5.314-0.44-5.369c0.306-0.091,2.092,6.802,3.711,6.67c0.392-0.032,0.669-0.467,1.025-1.025
	c0.881-1.382,0.867-2.849,0.854-3.417c-0.076-3.379-0.648-5.484-1.199-9.414c-0.08-0.568-0.244-1.783-0.612-3.405
	c-0.013-0.057-0.281-1.232-0.552-2.141c-0.472-1.585-1.35-4.531-3.816-7.056C-206.001-0.282-207.166-1.452-209.077-2.304z"/>
</svg>
