<?xml version="1.0" standalone="no"?><!DOCTYPE svg PUBLIC "-//W3C//DTD SVG 1.1//EN" "http://www.w3.org/Graphics/SVG/1.1/DTD/svg11.dtd"><svg t="1560004866096" class="icon" style="" viewBox="0 0 1024 1024" version="1.1" xmlns="http://www.w3.org/2000/svg" p-id="8844" xmlns:xlink="http://www.w3.org/1999/xlink" width="200" height="200"><defs><style type="text/css"></style></defs><path d="M969.110206 219.486037q22.818942 0 38.836083 16.017142t16.017142 38.836083l0 694.807514q0 22.818942-16.017142 38.836083t-38.836083 16.017142l-548.532248 0q-22.818942 0-38.836083-16.017142t-16.017142-38.836083l0-164.559674-310.83494 0q-22.818942 0-38.836083-16.017142t-16.017142-38.836083l0-383.972573q0-22.818942 11.409471-50.318692t27.426612-43.443754l233.162774-233.162774q16.017142-16.017142 43.443754-27.426612t50.318692-11.409471l237.697307 0q22.818942 0 38.836083 16.017142t16.017142 38.836083l0 187.451753q38.836083-22.818942 73.137633-22.818942l237.697307 0zM658.275266 341.187058l-170.849511 170.849511 170.849511 0 0-170.849511zM292.587101 121.774159l-170.849511 170.849511 170.849511 0 0-170.849511zM404.560817 491.484894l180.576816-180.576816 0-237.697307-219.412899 0 0 237.697307q0 22.818942-16.017142 38.836083t-38.836083 16.017142l-237.697307 0 0 365.688165 292.550532 0 0-146.275266q0-22.818942 11.409471-50.318692t27.426612-43.443754zM950.825798 950.862367l0-658.238697-219.412899 0 0 237.697307q0 22.818942-16.017142 38.836083t-38.836083 16.017142l-237.697307 0 0 365.688165 511.963431 0z" p-id="8845" fill="#0bffb6"></path></svg>