<?xml version="1.0" standalone="no"?><!DOCTYPE svg PUBLIC "-//W3C//DTD SVG 1.1//EN" "http://www.w3.org/Graphics/SVG/1.1/DTD/svg11.dtd"><svg t="1553696035522" class="icon" style="" viewBox="0 0 1024 1024" version="1.1" xmlns="http://www.w3.org/2000/svg" p-id="1513" xmlns:xlink="http://www.w3.org/1999/xlink" width="200" height="200"><defs><style type="text/css"></style></defs><path d="M736.926897 600.275862l-152.187587 125.704828-103.282758 85.274482c-13.011862 10.769655-31.832276 10.769655-44.844138 0l-103.282759-85.274482L158.896552 581.914483 52.965517 494.344828l105.931035-87.569656h370.75862V582.62069a17.655172 17.655172 0 0 0 17.655173 17.655172h189.616552z" fill="#B19046" p-id="1514"></path><path d="M759.172414 971.034483V35.310345a35.416276 35.416276 0 0 0-35.310345-35.310345H194.206897a35.416276 35.416276 0 0 0-35.310345 35.310345v935.724138h600.275862z" fill="#F9EAB0" p-id="1515"></path><path d="M759.172414 581.914483l-174.433104 144.066207-103.282758 85.274482c-13.011862 10.769655-31.832276 10.769655-44.844138 0l-103.282759-85.274482L158.896552 581.914483 52.965517 494.344828v476.689655a52.965517 52.965517 0 0 0 52.965517 52.965517h706.206897a52.965517 52.965517 0 0 0 52.965517-52.965517V494.344828l-105.931034 87.569655z" fill="#E4C05C" p-id="1516"></path><path d="M282.482759 123.586207m-52.965518 0a52.965517 52.965517 0 1 0 105.931035 0 52.965517 52.965517 0 1 0-105.931035 0Z" fill="#FF5364" p-id="1517"></path><path d="M564.965517 88.275862h-17.655172a17.655172 17.655172 0 0 1 0-35.310345h17.655172a17.655172 17.655172 0 0 1 0 35.310345zM688.551724 88.275862h-52.965517a17.655172 17.655172 0 0 1 0-35.310345h52.965517a17.655172 17.655172 0 0 1 0 35.310345zM600.275862 141.241379h-105.931034a17.655172 17.655172 0 0 1 0-35.310345h105.931034a17.655172 17.655172 0 0 1 0 35.310345zM688.551724 141.241379h-17.655172a17.655172 17.655172 0 0 1 0-35.310345h17.655172a17.655172 17.655172 0 0 1 0 35.310345zM688.551724 194.206897h-105.931034a17.655172 17.655172 0 0 1 0-35.310345h105.931034a17.655172 17.655172 0 0 1 0 35.310345z" fill="#2C3E50" p-id="1518"></path><path d="M529.655172 317.793103m17.655173 0l406.068965 0q17.655172 0 17.655173 17.655173l0 247.172414q0 17.655172-17.655173 17.655172l-406.068965 0q-17.655172 0-17.655173-17.655172l0-247.172414q0-17.655172 17.655173-17.655173Z" fill="#2C3E50" p-id="1519"></path><path d="M635.586207 423.724138m-35.310345 0a35.310345 35.310345 0 1 0 70.62069 0 35.310345 35.310345 0 1 0-70.62069 0Z" fill="#FF5364" p-id="1520"></path><path d="M776.827586 406.068966h-17.655172a17.655172 17.655172 0 0 1 0-35.310345h17.655172a17.655172 17.655172 0 0 1 0 35.310345zM900.413793 406.068966h-70.62069a17.655172 17.655172 0 0 1 0-35.310345h70.62069a17.655172 17.655172 0 0 1 0 35.310345zM847.448276 476.460138h-123.586207a17.655172 17.655172 0 0 1 0-35.310345h123.586207a17.655172 17.655172 0 0 1 0 35.310345zM900.413793 476.477793a17.549241 17.549241 0 0 1-12.535172-5.12 20.48 20.48 0 0 1-3.707587-5.843862 14.777379 14.777379 0 0 1-1.412413-6.69131 17.655172 17.655172 0 0 1 30.190345-12.535173 16.331034 16.331034 0 0 1 3.707586 5.826207 16.595862 16.595862 0 0 1 0 13.400276 15.801379 15.801379 0 0 1-9.533793 9.533793 14.81269 14.81269 0 0 1-6.708966 1.430069z" fill="#E6E7E8" p-id="1521"></path><path d="M850.096552 1007.933793A52.788966 52.788966 0 0 1 812.137931 1024H105.931034a52.788966 52.788966 0 0 1-37.95862-16.066207l265.357241-281.953103 103.282759 85.274482c13.011862 10.769655 31.832276 10.769655 44.844138 0l103.282758-85.274482 265.357242 281.953103z" fill="#B19046" p-id="1522"></path></svg>