<?xml version="1.0" standalone="no"?><!DOCTYPE svg PUBLIC "-//W3C//DTD SVG 1.1//EN" "http://www.w3.org/Graphics/SVG/1.1/DTD/svg11.dtd"><svg t="1554289153260" class="icon" style="" viewBox="0 0 1024 1024" version="1.1" xmlns="http://www.w3.org/2000/svg" p-id="2467" xmlns:xlink="http://www.w3.org/1999/xlink" width="200" height="200"><defs><style type="text/css"></style></defs><path d="M512 690.8c-117.1 0-227.4-57.5-274.5-143l74.8-41.2c32.5 59.1 112.8 98.8 199.7 98.8v85.4z" p-id="2468" fill="#2c2c2c"></path><path d="M298.7 930.5V770C166.4 705.4 85.3 587.3 85.3 456.1c0-200 191.4-362.7 426.7-362.7s426.7 162.7 426.7 362.7c0 197-185.9 357.9-416.4 362.6L298.7 930.5zM512 178.8c-188.2 0-341.3 124.4-341.3 277.3 0 104.5 71.7 199.1 187 246.9l26.3 11v78.5l117.9-59H512c188.2 0 341.3-124.4 341.3-277.3S700.2 178.8 512 178.8z" p-id="2469" fill="#2c2c2c"></path></svg>